<svg viewBox="0 0 24 1" fill="none" xmlns="http://www.w3.org/2000/svg">
    <rect x="0" width="1" y="0.3" height="0.2" fill="white" fill-opacity="0.2"/>
    <rect x="1" width="1" y="0.3" height="0.2" fill="white" fill-opacity="0.4"/>
    <rect x="2" width="1" y="0.3" height="0.2" fill="white" fill-opacity="0.2"/>
    <rect x="3" width="1" y="0.3" height="0.2" fill="white" fill-opacity="0.4"/>
    <rect x="4" width="1" y="0.3" height="0.2" fill="white" fill-opacity="0.2"/>
    <rect x="5" width="1" y="0.3" height="0.2" fill="white" fill-opacity="0.4"/>
    <rect x="6" width="1" y="0.3" height="0.2" fill="white" fill-opacity="0.2"/>
    <rect x="7" width="1" y="0.3" height="0.2" fill="white" fill-opacity="0.4"/>
    <rect x="8" width="1" y="0.3" height="0.2" fill="white" fill-opacity="0.2"/>
    <rect x="9" width="1" y="0.3" height="0.2" fill="white" fill-opacity="0.4"/>
    <rect x="10" width="1" y="0.3" height="0.2" fill="white" fill-opacity="0.2"/>
    <rect x="11" width="1" y="0.3" height="0.2" fill="white" fill-opacity="0.4"/>
    <rect x="12" width="1" y="0.3" height="0.2" fill="white" fill-opacity="0.2"/>
    <rect x="13" width="1" y="0.3" height="0.2" fill="white" fill-opacity="0.4"/>
    <rect x="14" width="1" y="0.3" height="0.2" fill="white" fill-opacity="0.2"/>
    <rect x="15" width="1" y="0.3" height="0.2" fill="white" fill-opacity="0.4"/>
    <rect x="16" width="1" y="0.3" height="0.2" fill="white" fill-opacity="0.2"/>
    <rect x="17" width="1" y="0.3" height="0.2" fill="white" fill-opacity="0.4"/>
    <rect x="18" width="1" y="0.3" height="0.2" fill="white" fill-opacity="0.2"/>
    <rect x="19" width="1" y="0.3" height="0.2" fill="white" fill-opacity="0.4"/>
    <rect x="20" width="1" y="0.3" height="0.2" fill="white" fill-opacity="0.2"/>
    <rect x="21" width="1" y="0.3" height="0.2" fill="white" fill-opacity="0.4"/>
    <rect x="22" width="1" y="0.3" height="0.2" fill="white" fill-opacity="0.2"/>
    <rect x="23" width="1" y="0.3" height="0.2" fill="white" fill-opacity="0.4"/>
</svg>