<svg width="36" height="36" viewBox="0 0 36 36" fill="none" xmlns="http://www.w3.org/2000/svg">
<path d="M6.75 9C8.40685 9 9.75 7.65685 9.75 6C9.75 4.34315 8.40685 3 6.75 3C5.09315 3 3.75 4.34315 3.75 6C3.75 7.65685 5.09315 9 6.75 9Z" fill="white" stroke="white" stroke-width="2"/>
<path d="M9.75 13.5H3.75V32.25H9.75V13.5Z" fill="white" stroke="white" stroke-width="2" stroke-linejoin="round"/>
<path d="M15.75 20.625V32.25H21V21.75C21 19.875 22.125 18.375 24 18.375C25.875 18.375 27 20.25 27 21.75V32.25H32.25V20.625C32.25 18.375 29.625 13.5 24 13.5C18.375 13.5 15.75 18.375 15.75 20.625Z" fill="white" stroke="white" stroke-width="2" stroke-linejoin="round"/>
</svg>
