<svg width="32" height="28" viewBox="0 0 32 28" fill="none" xmlns="http://www.w3.org/2000/svg">
<path d="M1.75 22.8216C3.19665 23.6214 13.6686 29.658 21.1149 25.0055C28.5612 20.353 28.1504 12.3375 28.1504 8.6645C28.825 7.25135 30.25 6.53292 30.25 2.70785C28.8503 4.00085 27.459 4.4408 26.0763 4.0277C24.7215 1.96218 22.8576 1.0486 20.4846 1.287C16.925 1.6446 15.6227 5.13687 16.0059 9.65502C10.5174 12.4305 6.21362 7.643 3.99564 4.0277C3.25455 6.87492 2.53998 10.2932 3.99564 14.0746C4.96608 16.5955 7.29887 18.7268 10.994 20.4684C7.24922 22.4981 4.16787 23.2824 1.75 22.8216Z" fill="white" stroke="white" stroke-width="2" stroke-linejoin="round"/>
</svg>
