<svg width="36" height="36" viewBox="0 0 36 36" fill="none" xmlns="http://www.w3.org/2000/svg">
<path d="M9.42111 12.3081C6.91298 14.7455 1.62219 21.8594 5.52165 26.9487C9.4211 32.038 20.4613 30.0748 25.019 26.4894C29.5766 22.904 29.1268 20.6885 28.1386 19.7124C27.1504 18.7363 24.2665 19.7227 23.4592 18.3944C22.652 17.0662 24.8965 13.7482 22.9837 12.6983C21.0709 11.6484 17.7678 15.4357 16.2759 14.4517C14.7839 13.4675 17.9177 10.2546 16.2759 9.3287C14.634 8.4029 11.9293 9.87065 9.42111 12.3081Z" fill="white" stroke="white" stroke-width="2" stroke-linejoin="round"/>
<path d="M32.5355 12.3864C32.3591 10.0381 31.3507 7.92185 29.8043 6.33153C28.295 4.77929 26.273 3.72808 24.0117 3.45117" stroke="white" stroke-width="2" stroke-linecap="round"/>
<path d="M27.9685 12.6989C27.8716 11.4692 27.3181 10.3609 26.4691 9.52801C25.6405 8.71508 24.5305 8.16458 23.2891 8.01953" stroke="white" stroke-width="2" stroke-linecap="round"/>
<path d="M18.75 22.5C18.75 24.1568 16.7353 25.5 14.25 25.5C11.7647 25.5 9.75 24.1568 9.75 22.5C9.75 20.8432 11.7647 19.5 14.25 19.5C16.7353 19.5 18.75 20.8432 18.75 22.5Z" fill="black"/>
</svg>
