<svg width="36" height="36" viewBox="0 0 36 36" fill="none" xmlns="http://www.w3.org/2000/svg">
<path fill-rule="evenodd" clip-rule="evenodd" d="M27.748 16.2834C27.6325 9.75593 22.3051 4.5 15.75 4.5C9.12255 4.5 3.75 9.87255 3.75 16.5C3.75 19.6276 4.94648 22.4757 6.90669 24.6115L6.00782 30.0193L11.3438 27.7274C13.6948 28.5091 15.9135 28.7046 18 28.3137" fill="white"/>
<path d="M27.748 16.2834C27.6325 9.75593 22.3051 4.5 15.75 4.5C9.12255 4.5 3.75 9.87255 3.75 16.5C3.75 19.6276 4.94648 22.4757 6.90669 24.6115L6.00782 30.0193L11.3438 27.7274C13.6948 28.5091 15.9135 28.7046 18 28.3137" stroke="white" stroke-width="2" stroke-linecap="round" stroke-linejoin="round"/>
<path d="M11.3438 15.3493C12.2757 15.3493 13.0312 14.5882 13.0312 13.6492C13.0312 12.7104 12.2757 11.9492 11.3438 11.9492C10.4118 11.9492 9.65625 12.7104 9.65625 13.6492C9.65625 14.5882 10.4118 15.3493 11.3438 15.3493Z" fill="black"/>
<path d="M18.0938 15.3493C19.0257 15.3493 19.7812 14.5882 19.7812 13.6492C19.7812 12.7104 19.0257 11.9492 18.0938 11.9492C17.1618 11.9492 16.4062 12.7104 16.4062 13.6492C16.4062 14.5882 17.1618 15.3493 18.0938 15.3493Z" fill="black"/>
<path fill-rule="evenodd" clip-rule="evenodd" d="M29.0713 29.947C27.7601 30.9226 26.135 31.5 24.375 31.5C20.0258 31.5 16.5 27.9742 16.5 23.625C16.5 19.2758 20.0258 15.75 24.375 15.75C28.7242 15.75 32.25 19.2758 32.25 23.625C32.25 24.8248 31.9817 25.9619 31.5018 26.9796" fill="white"/>
<path d="M29.0713 29.947C27.7601 30.9226 26.135 31.5 24.375 31.5C20.0258 31.5 16.5 27.9742 16.5 23.625C16.5 19.2758 20.0258 15.75 24.375 15.75C28.7242 15.75 32.25 19.2758 32.25 23.625C32.25 24.8248 31.9817 25.9619 31.5018 26.9796" stroke="white" stroke-width="2" stroke-linecap="round" stroke-linejoin="round"/>
<path fill-rule="evenodd" clip-rule="evenodd" d="M31.5008 26.9805L32.249 31.5009L29.0703 29.9478" fill="white"/>
<path d="M31.5008 26.9805L32.249 31.5009L29.0703 29.9478" stroke="white" stroke-width="2" stroke-linecap="round" stroke-linejoin="round"/>
<path d="M26.7656 23.1008C26.0666 23.1008 25.5 22.53 25.5 21.8258C25.5 21.1216 26.0666 20.5508 26.7656 20.5508C27.4646 20.5508 28.0312 21.1216 28.0312 21.8258C28.0312 22.53 27.4646 23.1008 26.7656 23.1008Z" fill="black"/>
<path d="M21.7031 23.1008C21.0041 23.1008 20.4375 22.53 20.4375 21.8258C20.4375 21.1216 21.0041 20.5508 21.7031 20.5508C22.4021 20.5508 22.9688 21.1216 22.9688 21.8258C22.9688 22.53 22.4021 23.1008 21.7031 23.1008Z" fill="black"/>
</svg>
